<svg width="64" height="64" viewBox="0 0 64 64" xmlns="http://www.w3.org/2000/svg" role="img" aria-label="관리자 아이콘">
  <defs>
    <linearGradient id="adminBg" x1="0%" y1="0%" x2="100%" y2="100%">
      <stop offset="0%" stop-color="#a855f7"/>
      <stop offset="100%" stop-color="#3b82f6"/>
    </linearGradient>
  </defs>
  <rect x="4" y="4" width="56" height="56" rx="16" fill="url(#adminBg)"/>
  <path d="M22 42l20-20" stroke="#ffffff" stroke-width="6" stroke-linecap="round"/>
  <path d="M36 42l-20-20" stroke="#ffffff" stroke-width="6" stroke-linecap="round" opacity="0.7"/>
  <circle cx="28" cy="20" r="4" fill="#ffffff"/>
  <circle cx="36" cy="44" r="4" fill="#ffffff"/>
</svg>
<svg xmlns="http://www.w3.org/2000/svg" viewBox="0 0 64 64" role="img" aria-label="LEDsystem Admin Icon">
  <defs>
    <linearGradient id="adminGradient" x1="0%" y1="0%" x2="100%" y2="100%">
      <stop offset="0%" stop-color="#8b5cf6"/>
      <stop offset="100%" stop-color="#10b981"/>
    </linearGradient>
  </defs>
  <circle cx="32" cy="32" r="30" fill="url(#adminGradient)"/>
  <path d="M46 18l-6-6-8 8-4-4-8 8 4 4-8 8 8 8 8-8 4 4 8-8-4-4 6-6-2-2z"
        fill="#fff" stroke="#fff" stroke-width="2" stroke-linejoin="round"/>
</svg>

